# xmcd
#
# Track frame offsets:
#	150
#	12747
#	24985
#	37126
#	51066
#	64269
#	75312
#	88160
#	100426
#	113354
#	127031
#	140164
#	154246
#	165453
#	177509
#	190037
#	202443
#	215405
#	229989
#	240745
#	252198
#	263958
#	275921
#	289264
#	302254
#
# Disc length: 4213 seconds
#
# Revision: 1
# Processed by: cddbd v1.5.2PL0 Copyright (c) Steve Scherf et al.
# Submitted via: EZCDAudioConverter 1.2.3.1
#
DISCID=78107319
DTITLE=Louis Jordan - The Essence Of Louis Jordan
DYEAR=2006
DGENRE=R&B
TTITLE0=Let The Good Times Roll
TTITLE1=Choo Choo Ch'boogie
TTITLE2=Caldonia
TTITLE3=Five Guys Named Moe
TTITLE4=Pinetop's Boogie Woogie
TTITLE5=The The Chicks I Pick Are Slender, Tender And Tall
TTITLE6=I'm Gonna Leave You On The Outskirts Of Town
TTITLE7=Is You Is Or Is You Ain't My Baby?
TTITLE8=What's The Use Of Getting Sober (When Your Gonna Get Drunk Again)
TTITLE9=G.I. Jive
TTITLE10=Mop! Mop!
TTITLE11=Ration Blues
TTITLE12=Don't Worry 'Bout That Mule
TTITLE13=Stone Cold Dead In The Market (He Had It Coming)
TTITLE14=My Baby Said Yes (Yip Yip De Hootie)
TTITLE15=Buzz Me
TTITLE16=Salt Pork, West Virginia
TTITLE17=Somebody Done Change The Lock On My Door
TTITLE18=That Chick's Too Young For Frying
TTITLE19=Jack, You're Dead
TTITLE20=Petootie Pie
TTITLE21=Beware Brother Beware
TTITLE22=Don't Let The Sun Catch You Crying
TTITLE23=Ain't That Just Like A Woman (They'll Do It Every Time)
TTITLE24=Texas And Pacific
EXTD=
EXTT0=
EXTT1=
EXTT2=
EXTT3=
EXTT4=
EXTT5=
EXTT6=
EXTT7=
EXTT8=
EXTT9=
EXTT10=
EXTT11=
EXTT12=
EXTT13=
EXTT14=
EXTT15=
EXTT16=
EXTT17=
EXTT18=
EXTT19=
EXTT20=
EXTT21=
EXTT22=
EXTT23=
EXTT24=
PLAYORDER=
